<svg width="500" height="500" xmlns="http://www.w3.org/2000/svg">

 <g>
  <title>background</title>
  <rect fill="none" id="canvas_background" height="602" width="802" y="-1" x="-1"/>
 </g>
 <g>
  <title>Layer 1</title>
  <g stroke="null" id="svg_6">
   <rect stroke="null" id="svg_1" fill=" rgb(136, 94, 219)" transform="matrix(-0.8458870868075256,3.428701788784845,-3.3926672926852244,-0.8548714970961514,1296.161878505082,-1068.0116003596888) " ry="10" rx="10" height="120" width="20" y="140.16634" x="400.30283"/>
   <rect stroke="null" id="svg_2" fill=" rgb(250, 249, 70)" transform="matrix(-3.3926672926852244,-0.8548714970961514,0.8458870868075256,-3.428701788784845,106.04235956269967,-694.8247527429344) " ry="10" rx="10" height="120" width="20" y="-308.16783" x="-136.46266"/>
   <rect stroke="null" id="svg_3" fill=" rgb(55, 212, 255)" transform="matrix(-0.8458870868075256,3.428701788784845,-3.3926672926852244,-0.8548714970961514,1258.0161303571463,-921.3702897052856) " ry="10" rx="10" height="120" width="20" y="140.16634" x="400.30283"/>
   <rect stroke="null" id="svg_4" fill=" rgb(240, 55, 80)" transform="matrix(3.3926672926852244,0.8548714970961514,-0.8458870868075256,3.428701788784845,205.8497350551785,-1105.0197352633375) " ry="10" rx="10" height="120" width="20" y="309.17983" x="73.85566"/>
   <rect stroke="null" id="svg_5" fill=" rgb(136, 94, 219)" transform="matrix(-0.8458870868075256,3.428701788784845,-3.3926672926852244,-0.8548714970961514,883.9455576374689,-1171.82695934221) " height="38.457" width="20" y="77.48234" x="400.30283"/>
  </g>
 </g>
</svg>